<svg width="32" height="32" viewBox="0 0 32 32" fill="none" xmlns="http://www.w3.org/2000/svg">
<path d="M11.3334 19.5556C11.3334 21.2738 12.7262 22.6667 14.4445 22.6667H17.3334C19.1743 22.6667 20.6667 21.1743 20.6667 19.3333C20.6667 17.4924 19.1743 16 17.3334 16H14.6667C12.8257 16 11.3334 14.5076 11.3334 12.6667C11.3334 10.8257 12.8257 9.33333 14.6667 9.33333H17.5556C19.2738 9.33333 20.6667 10.7262 20.6667 12.4444M16 7.33333V9.33333M16 22.6667V24.6667M29.3334 16C29.3334 23.3638 23.3638 29.3333 16 29.3333C8.63622 29.3333 2.66669 23.3638 2.66669 16C2.66669 8.6362 8.63622 2.66667 16 2.66667C23.3638 2.66667 29.3334 8.6362 29.3334 16Z" stroke="#06B26B" stroke-width="2" stroke-linecap="round" stroke-linejoin="round"/>
</svg>
