<svg width="32" height="32" viewBox="0 0 32 32" fill="none" xmlns="http://www.w3.org/2000/svg">
<path d="M20.4445 11.0309C19.265 9.97523 17.7075 9.33333 16 9.33333C12.3181 9.33333 9.33335 12.3181 9.33335 16C9.33335 19.6819 12.3181 22.6667 16 22.6667C17.7075 22.6667 19.265 22.0248 20.4445 20.9691M8.00002 18H14.6667M8.00002 14H14.6667M29.3334 16C29.3334 23.3638 23.3638 29.3333 16 29.3333C8.63622 29.3333 2.66669 23.3638 2.66669 16C2.66669 8.6362 8.63622 2.66667 16 2.66667C23.3638 2.66667 29.3334 8.6362 29.3334 16Z" stroke="#06B26B" stroke-width="2" stroke-linecap="round" stroke-linejoin="round"/>
</svg>
