<svg width="32" height="32" viewBox="0 0 32 32" fill="none" xmlns="http://www.w3.org/2000/svg">
<path d="M18.6666 3.02604V8.53343C18.6666 9.28016 18.6666 9.65353 18.812 9.93875C18.9398 10.1896 19.1438 10.3936 19.3947 10.5214C19.6799 10.6668 20.0532 10.6668 20.8 10.6668H26.3074M18.6666 22.6667H10.6666M21.3333 17.3333H10.6666M26.6666 13.3176V22.9333C26.6666 25.1735 26.6666 26.2936 26.2307 27.1493C25.8472 27.9019 25.2353 28.5139 24.4826 28.8974C23.627 29.3333 22.5069 29.3333 20.2666 29.3333H11.7333C9.4931 29.3333 8.373 29.3333 7.51735 28.8974C6.7647 28.5139 6.15278 27.9019 5.76929 27.1493C5.33331 26.2936 5.33331 25.1735 5.33331 22.9333V9.06667C5.33331 6.82646 5.33331 5.70635 5.76929 4.8507C6.15278 4.09806 6.7647 3.48613 7.51735 3.10264C8.373 2.66667 9.4931 2.66667 11.7333 2.66667H16.0157C16.994 2.66667 17.4832 2.66667 17.9436 2.77719C18.3517 2.87517 18.7419 3.03679 19.0998 3.25611C19.5035 3.50347 19.8494 3.84938 20.5412 4.54118L24.7921 8.79215C25.4839 9.48396 25.8298 9.82986 26.0772 10.2335C26.2965 10.5914 26.4581 10.9816 26.5561 11.3897C26.6666 11.8501 26.6666 12.3393 26.6666 13.3176Z" stroke="#06B26B" stroke-width="2" stroke-linecap="round" stroke-linejoin="round"/>
</svg>
