<svg width="32" height="32" viewBox="0 0 32 32" fill="none" xmlns="http://www.w3.org/2000/svg">
<path d="M22.6666 14.6667V10.6667C22.6666 6.98477 19.6819 4 16 4C12.3181 4 9.33331 6.98477 9.33331 10.6667V14.6667M11.7333 28H20.2666C22.5069 28 23.627 28 24.4826 27.564C25.2353 27.1805 25.8472 26.5686 26.2307 25.816C26.6666 24.9603 26.6666 23.8402 26.6666 21.6V21.0667C26.6666 18.8265 26.6666 17.7064 26.2307 16.8507C25.8472 16.0981 25.2353 15.4861 24.4826 15.1026C23.627 14.6667 22.5069 14.6667 20.2666 14.6667H11.7333C9.4931 14.6667 8.373 14.6667 7.51735 15.1026C6.7647 15.4861 6.15278 16.0981 5.76929 16.8507C5.33331 17.7064 5.33331 18.8265 5.33331 21.0667V21.6C5.33331 23.8402 5.33331 24.9603 5.76929 25.816C6.15278 26.5686 6.7647 27.1805 7.51735 27.564C8.373 28 9.4931 28 11.7333 28Z" stroke="#06B26B" stroke-width="2" stroke-linecap="round" stroke-linejoin="round"/>
</svg>
